<svg aria-hidden="true" style="position: absolute; width: 0; height: 0; overflow: hidden;" version="1.1" xmlns="http://www.w3.org/2000/svg" xmlns:xlink="http://www.w3.org/1999/xlink">
<defs>
<symbol id="icon-home" viewBox="0 0 32 32">
<path d="M31.463 14.567l-4.85-4.85v-5.602c0-1.013-0.821-1.834-1.835-1.834-1.012 0-1.833 0.821-1.833 1.834v1.934l-3.611-3.611c-1.785-1.784-4.889-1.781-6.671 0.003l-12.126 12.126c-0.716 0.717-0.716 1.878 0 2.594s1.879 0.717 2.595 0l12.125-12.126c0.395-0.393 1.091-0.393 1.484-0.001l12.127 12.127c0.36 0.359 0.828 0.537 1.297 0.537s0.939-0.179 1.298-0.537c0.716-0.716 0.716-1.877-0-2.594z"></path>
<path d="M16.637 8.516c-0.352-0.352-0.923-0.352-1.274 0l-10.666 10.663c-0.168 0.168-0.264 0.398-0.264 0.638v7.777c0 1.825 1.48 3.305 3.305 3.305h5.281v-8.178h5.962v8.178h5.281c1.825 0 3.305-1.48 3.305-3.305v-7.777c0-0.24-0.095-0.47-0.264-0.638l-10.665-10.663z"></path>
</symbol>
<symbol id="icon-search" viewBox="0 0 32 32">
<path d="M13.106 26.225c2.698 0 5.191-0.822 7.273-2.21l7.529 7.529c0.591 0.591 1.568 0.591 2.184 0l1.465-1.465c0.591-0.591 0.591-1.568 0-2.184l-7.555-7.504c1.387-2.082 2.21-4.574 2.21-7.273 0-7.221-5.885-13.106-13.106-13.106s-13.106 5.885-13.106 13.106c0 7.221 5.859 13.106 13.106 13.106zM13.106 5.152c4.394 0 7.966 3.572 7.966 7.966s-3.572 7.966-7.966 7.966c-4.394 0-7.966-3.572-7.966-7.966s3.572-7.966 7.966-7.966z"></path>
</symbol>
<symbol id="icon-close" viewBox="0 0 32 32">
<path d="M8.301 6.415c-0.521-0.521-1.365-0.521-1.886 0s-0.521 1.365 0 1.886l7.7 7.7-7.7 7.7c-0.521 0.521-0.521 1.365 0 1.886s1.365 0.521 1.886 0l7.7-7.7 7.7 7.7c0.521 0.521 1.365 0.521 1.886 0s0.521-1.365 0-1.886l-7.7-7.7 7.7-7.7c0.521-0.521 0.521-1.365 0-1.886s-1.365-0.521-1.886 0l-7.7 7.7-7.7-7.7z"></path>
</symbol>
</defs>
</svg>