<svg aria-hidden="true" style="position: absolute; width: 0; height: 0; overflow: hidden;" version="1.1" xmlns="http://www.w3.org/2000/svg" xmlns:xlink="http://www.w3.org/1999/xlink">
<defs>
<symbol id="icon-percentage" viewBox="0 0 32 32">
<path d="M31.558 0.446c-0.586-0.587-1.538-0.587-2.124 0l-28.985 28.985c-0.587 0.587-0.587 1.537 0 2.123 0.293 0.294 0.678 0.44 1.062 0.44s0.769-0.147 1.062-0.44l28.985-28.985c0.587-0.587 0.587-1.537 0-2.123z"></path>
<path d="M7.134 0.016c-3.933 0-7.134 3.201-7.134 7.134s3.2 7.134 7.134 7.134c3.934 0 7.134-3.201 7.134-7.134s-3.2-7.134-7.134-7.134zM7.134 11.28c-2.277 0-4.13-1.853-4.13-4.13s1.853-4.13 4.13-4.13c2.277 0 4.13 1.853 4.13 4.13s-1.853 4.13-4.13 4.13z"></path>
<path d="M24.866 17.725c-3.933 0-7.134 3.2-7.134 7.134s3.2 7.134 7.134 7.134 7.134-3.2 7.134-7.134-3.2-7.134-7.134-7.134zM24.866 28.989c-2.277 0-4.13-1.853-4.13-4.13s1.853-4.13 4.13-4.13c2.277 0 4.13 1.853 4.13 4.13s-1.853 4.13-4.13 4.13z"></path>
</symbol>
</defs>
</svg>
